<?xml version="1.0" standalone="no"?>
<!DOCTYPE svg PUBLIC "-//W3C//DTD SVG 20010904//EN"
 "http://www.w3.org/TR/2001/REC-SVG-20010904/DTD/svg10.dtd">
<svg version="1.0" xmlns="http://www.w3.org/2000/svg"
 width="156.000000pt" height="135.000000pt" viewBox="0 0 156.000000 135.000000"
 preserveAspectRatio="xMidYMid meet">

<g transform="translate(0.000000,135.000000) scale(0.100000,-0.100000)"
fill="#000000" stroke="none">
<path d="M663 981 c-218 -80 -310 -324 -197 -518 28 -47 97 -114 142 -137 59
-31 155 -47 212 -36 147 28 243 109 291 248 57 162 -30 353 -195 428 -79 36
-179 42 -253 15z m230 -60 c88 -40 89 -35 -22 -145 l-99 -99 -101 89 c-56 49
-101 94 -101 100 0 13 91 64 134 75 46 12 142 2 189 -20z m153 -143 c24 -45
28 -65 29 -128 0 -76 -22 -157 -49 -179 -9 -8 -38 12 -115 81 l-102 91 93 94
c51 51 98 93 104 93 6 0 24 -24 40 -52z m-411 -47 c52 -46 95 -86 95 -90 0 -3
-43 -49 -96 -101 l-96 -95 -16 24 c-58 83 -69 209 -27 299 14 30 29 52 35 50
5 -1 52 -41 105 -87z m245 -218 c55 -48 99 -92 97 -98 -2 -5 -32 -25 -66 -42
-53 -28 -74 -33 -130 -33 -72 0 -141 19 -181 50 l-25 19 95 96 c52 52 98 95
103 95 4 0 53 -39 107 -87z"/>
</g>
</svg>
