<?xml version="1.0" standalone="no"?>
<!DOCTYPE svg PUBLIC "-//W3C//DTD SVG 20010904//EN"
 "http://www.w3.org/TR/2001/REC-SVG-20010904/DTD/svg10.dtd">
<svg version="1.0" xmlns="http://www.w3.org/2000/svg"
 width="348.000000pt" height="305.000000pt" viewBox="0 0 348.000000 305.000000"
 preserveAspectRatio="xMidYMid meet">

<g transform="translate(0.000000,305.000000) scale(0.100000,-0.100000)"
fill="#000000" stroke="none">
<path d="M1957 2082 c-305 -598 -476 -924 -496 -945 -4 -4 -41 1 -82 12 -41
11 -95 23 -121 27 l-48 6 0 549 0 549 -55 0 -55 0 0 -548 0 -549 -72 -13
c-197 -35 -349 -117 -479 -258 -127 -138 -198 -299 -215 -488 l-7 -74 57 0 56
0 0 38 c0 53 26 167 52 232 81 201 231 343 443 416 73 26 92 28 220 28 124 0
149 -3 218 -26 111 -37 211 -100 292 -183 120 -123 189 -273 202 -437 l6 -78
55 0 55 0 -6 82 c-14 184 -91 358 -218 493 -61 64 -147 134 -197 161 -2 1 49
100 114 221 64 120 238 459 387 753 149 294 271 536 273 538 1 2 164 -78 363
-177 l361 -181 25 50 25 50 -409 204 -410 205 -334 -657z"/>
</g>
</svg>
