<?xml version="1.0" standalone="no"?>
<!DOCTYPE svg PUBLIC "-//W3C//DTD SVG 20010904//EN"
 "http://www.w3.org/TR/2001/REC-SVG-20010904/DTD/svg10.dtd">
<svg version="1.0" xmlns="http://www.w3.org/2000/svg"
 width="79.000000pt" height="79.000000pt" viewBox="0 0 79.000000 79.000000"
 preserveAspectRatio="xMidYMid meet">

<g transform="translate(0.000000,79.000000) scale(0.100000,-0.100000)"
fill="#000000" stroke="none">
<path d="M551 510 l-112 -90 -36 15 c-47 20 -89 19 -140 -5 -47 -21 -83 -70
-83 -113 0 -144 233 -188 300 -56 19 37 21 48 11 79 -6 21 -11 40 -11 43 0 4
43 41 95 83 l96 77 34 -33 c33 -32 65 -36 65 -8 0 15 -80 98 -95 98 -7 0 -62
-40 -124 -90z m-135 -141 c33 -31 38 -53 20 -87 -16 -31 -59 -52 -105 -52 -37
0 -89 35 -97 65 -21 83 114 138 182 74z"/>
</g>
</svg>
