<?xml version="1.0" standalone="no"?>
<!DOCTYPE svg PUBLIC "-//W3C//DTD SVG 20010904//EN"
 "http://www.w3.org/TR/2001/REC-SVG-20010904/DTD/svg10.dtd">
<svg version="1.0" xmlns="http://www.w3.org/2000/svg"
 width="87.000000pt" height="87.000000pt" viewBox="0 0 87.000000 87.000000"
 preserveAspectRatio="xMidYMid meet">

<g transform="translate(0.000000,87.000000) scale(0.100000,-0.100000)"
fill="#000000" stroke="none">
<path d="M640 650 c-111 -89 -112 -89 -141 -75 -61 32 -161 9 -202 -47 -23
-31 -28 -108 -8 -132 10 -12 -3 -27 -83 -90 -52 -42 -99 -76 -104 -76 -4 0
-21 13 -37 30 -22 23 -32 27 -42 19 -7 -6 -13 -17 -13 -23 0 -17 73 -86 90
-86 8 0 65 40 126 89 74 58 116 86 125 81 91 -48 229 15 232 106 1 21 -2 50
-6 64 -6 22 2 32 83 95 49 38 95 72 101 74 6 2 26 -12 45 -30 29 -28 36 -31
44 -19 5 8 10 20 10 25 0 17 -74 85 -92 85 -9 0 -67 -40 -128 -90z m-151 -125
c16 -8 34 -28 41 -44 10 -26 10 -35 -4 -56 -24 -37 -76 -59 -119 -51 -37 7
-87 54 -87 82 0 65 99 106 169 69z"/>
</g>
</svg>
