<?xml version="1.0" standalone="no"?>
<!DOCTYPE svg PUBLIC "-//W3C//DTD SVG 20010904//EN"
 "http://www.w3.org/TR/2001/REC-SVG-20010904/DTD/svg10.dtd">
<svg version="1.0" xmlns="http://www.w3.org/2000/svg"
 width="82.000000pt" height="82.000000pt" viewBox="0 0 82.000000 82.000000"
 preserveAspectRatio="xMidYMid meet">

<g transform="translate(0.000000,82.000000) scale(0.100000,-0.100000)"
fill="#000000" stroke="none">
<path d="M97 642 c-31 -32 -57 -60 -57 -64 0 -3 52 -50 115 -103 l114 -98 -14
-28 c-47 -90 27 -189 140 -189 119 0 191 106 134 199 l-21 34 84 84 c45 45 87
83 94 83 6 0 21 -11 34 -25 27 -29 48 -32 57 -9 6 16 -71 104 -91 104 -5 0
-58 -48 -117 -106 -105 -104 -109 -106 -143 -100 -20 4 -54 2 -76 -4 l-41 -11
-92 77 c-50 43 -96 81 -102 86 -5 5 8 25 32 51 34 34 40 45 32 60 -6 9 -13 17
-17 17 -4 0 -33 -26 -65 -58z m348 -276 c95 -40 58 -156 -50 -156 -107 0 -145
115 -52 155 41 18 60 18 102 1z"/>
</g>
</svg>
