<?xml version="1.0" standalone="no"?>
<!DOCTYPE svg PUBLIC "-//W3C//DTD SVG 20010904//EN"
 "http://www.w3.org/TR/2001/REC-SVG-20010904/DTD/svg10.dtd">
<svg version="1.0" xmlns="http://www.w3.org/2000/svg"
 width="920.000000pt" height="1096.000000pt" viewBox="0 0 920.000000 1096.000000"
 preserveAspectRatio="xMidYMid meet">

<g transform="translate(0.000000,1096.000000) scale(0.100000,-0.100000)"
fill="#000000" stroke="none">
<path d="M4438 7178 l-3 -2222 -150 -17 c-1295 -144 -2385 -1034 -2788 -2274
-99 -305 -147 -578 -163 -929 l-7 -148 169 6 c93 3 193 5 222 6 l52 0 0 64 c0
103 19 311 41 441 174 1057 914 1925 1934 2269 433 147 957 186 1409 105 473
-84 931 -291 1306 -589 131 -104 342 -314 442 -440 396 -500 612 -1077 635
-1693 l6 -167 191 -1 c105 0 204 -3 220 -5 l29 -5 -6 173 c-16 469 -123 903
-327 1326 -176 363 -366 630 -654 917 -427 426 -952 721 -1545 870 -134 34
-361 72 -479 81 l-92 7 0 2223 0 2224 -220 0 -220 0 -2 -2222z"/>
</g>
</svg>
